<svg width="679" height="238" viewBox="0 0 679 238" fill="none" xmlns="http://www.w3.org/2000/svg">
<path fill-rule="evenodd" clip-rule="evenodd" d="M399.797 35.8546C400.083 31.9977 400.367 27.8552 400.367 23.5698C380.416 15.4275 358.47 11.1421 336.238 11.1421C332.248 11.1421 328.257 11.2849 324.267 11.5706C323.127 11.4278 322.415 11.2849 322.415 11.4278L356.902 39.9971C366.451 49.5679 363.6 50.8535 363.884 55.8532C370.725 46.1395 385.688 40.5686 385.688 40.5686C380.416 34.9974 385.118 27.7124 385.118 27.7124L413.193 50.9963C418.038 55.8532 415.473 61.4242 415.473 61.4242C421.031 69.7093 412.196 77.7087 412.196 77.7087C412.196 70.5664 405.071 62.4241 397.233 69.995C388.825 78.1372 392.529 101.136 392.529 101.136C382.838 93.5648 280.232 9.28509 280.945 8.85649C295.765 2.7141 320.705 0 336.238 0C361.32 0 386.258 4.99964 408.348 14.7133L411.769 16.2846V19.9985C411.626 28.5694 411.199 36.7117 410.2 44.5682L399.797 35.8546ZM261.278 15.5704C261.278 26.2838 261.848 36.7117 263.274 46.2825L346.071 92.9934C345.93 93.4219 345.787 93.8503 345.644 94.4218L264.842 57.4245C266.695 66.4239 268.973 74.8518 271.824 82.8512L343.649 108.135C343.649 108.564 343.506 108.993 343.506 109.564L275.671 92.5647L287.927 113.992L345.787 125.706C345.93 126.42 345.93 126.277 346.214 126.991L295.338 123.563C299.614 128.42 304.032 132.848 309.02 137.276L351.915 139.133C352.057 139.562 352.342 139.847 352.628 140.133L313.864 141.133C318.139 144.419 323.983 148.847 328.828 151.704C330.824 151.704 333.104 151.847 335.525 151.847L331.251 153.275C332.961 154.132 334.528 155.275 336.381 156.132C344.361 151.704 352.485 146.276 359.61 140.562L361.177 139.419H361.32C374.003 128.848 383.978 116.992 391.675 103.279L266.552 13.2848L261.278 15.5704Z" fill="url(#paint0_radial_9_55)"/>
<path d="M179.099 211.746V235.354H189.817V220.511H206.316C211.816 220.511 216.611 216.977 218.303 211.888L179.099 211.746Z" fill="#92957E"/>
<path d="M179.099 196.48C179.099 201.286 182.907 205.103 187.702 205.103H220.419L223.381 196.48H179.099Z" fill="#92957E"/>
<path d="M115.639 209.344C115.639 205.81 116.908 202.841 119.588 200.297C122.267 197.752 125.793 196.48 130.164 196.48H153.997C158.511 196.48 162.036 197.752 164.574 200.297C167.112 202.841 168.522 205.81 168.522 209.344V222.49C168.522 225.882 167.253 228.851 164.574 231.395C161.895 234.082 158.511 235.354 153.997 235.354H130.164C125.793 235.354 122.267 234.082 119.588 231.395C116.908 228.709 115.639 225.742 115.639 222.348V209.344ZM151.177 226.589C153.151 226.589 154.702 226.024 155.83 225.035C157.1 224.045 157.664 222.631 157.664 220.794V210.899C157.664 209.061 156.959 207.647 155.83 206.658C154.561 205.527 153.01 205.103 151.177 205.103H132.844C130.87 205.103 129.318 205.668 128.19 206.658C127.062 207.647 126.357 209.061 126.357 210.899V220.934C126.357 222.631 126.921 224.045 128.19 225.035C129.459 226.165 131.011 226.589 132.844 226.589H151.177Z" fill="#92957E"/>
<path d="M91.665 220.369C96.7417 220.369 105.626 220.228 105.626 208.214C105.626 198.035 97.1648 196.48 91.665 196.48H57.8193C57.8193 201.286 61.627 205.103 66.4217 205.103H90.6776C91.9469 205.103 94.6263 205.245 94.6263 208.495C94.6263 211.748 92.0879 211.748 90.5366 211.748H57.8193L78.8317 229.699C83.0624 233.375 88.5623 235.354 94.0622 235.354H103.37L83.6265 220.369H91.665Z" fill="#92957E"/>
<path d="M33.8455 196.48H0C0 201.286 3.80768 205.103 8.60244 205.103H10.7178H32.8584C34.1276 205.103 36.8071 205.245 36.8071 208.495C36.8071 211.748 34.2686 211.748 32.7173 211.748H10.8588H0.14108V235.354H10.8588V220.369H33.9866C39.0633 220.369 47.9478 220.228 47.9478 208.214C47.8067 198.035 39.3454 196.48 33.8455 196.48Z" fill="#92957E"/>
<path d="M654.634 222.496V236.334H643.591V222.496L619.906 196.425H634.581L649.113 213.32L663.644 196.425H678.32L654.634 222.496Z" fill="url(#paint1_linear_9_55)"/>
<path d="M607.768 196.425H568.243C563.302 196.425 559.379 200.357 559.379 205.309H577.397V236.479H588.44V205.309H599.049C603.699 205.309 607.768 201.377 607.768 196.425Z" fill="url(#paint2_linear_9_55)"/>
<path d="M547.678 196.425V236.479H536.634V196.425H547.678Z" fill="url(#paint3_linear_9_55)"/>
<path d="M462.953 196.425V223.078C462.953 226.575 461.645 229.633 458.884 232.401C456.123 235.168 452.635 236.479 447.985 236.479H429.096C424.59 236.479 420.958 235.168 418.197 232.401C415.436 229.633 414.128 226.575 414.128 223.078V196.425H425.171V221.478C425.171 223.225 425.754 224.681 427.06 225.701C428.369 226.866 429.967 227.303 431.857 227.303H445.08C447.113 227.303 448.712 226.721 449.874 225.701C451.182 224.681 451.763 223.225 451.763 221.478V196.425H462.953Z" fill="url(#paint4_linear_9_55)"/>
<path d="M367.842 225.846C366.534 224.827 365.953 223.37 365.953 221.478V217.69V215.65V211.573C365.953 211.573 366.099 205.309 372.783 205.309H390.656C396.324 205.309 401.264 201.668 403.153 196.425H379.176C378.885 196.425 378.741 196.425 378.45 196.425H371.184C357.67 196.425 355.056 205.454 355.056 211.573V212.155V216.961V218.855V223.078C355.056 226.575 356.362 229.633 359.123 232.401C361.884 235.168 365.518 236.479 370.022 236.479H387.751C393.417 236.479 398.503 232.838 400.247 227.448H372.783C370.603 227.595 369.004 227.012 367.842 225.846Z" fill="url(#paint5_linear_9_55)"/>
<path d="M309.786 220.311H328.821C333.908 220.311 338.558 216.961 340.157 212.155H298.887V236.334H340.738L343.789 227.448H309.786V220.311Z" fill="url(#paint6_linear_9_55)"/>
<path d="M341.754 205.309L344.807 196.425H298.887C298.887 201.377 302.812 205.309 307.752 205.309H341.754Z" fill="url(#paint7_linear_9_55)"/>
<path d="M277.014 212.738H252.167C250.422 212.591 248.97 211.135 248.97 209.097C248.97 206.621 251.003 205.601 252.311 205.601H272.655C278.467 205.601 283.698 201.959 285.587 196.425H249.987C244.029 196.425 238.361 201.959 238.361 208.805C238.361 218.564 246.79 221.478 250.132 221.478H274.835C277.451 221.478 278.177 223.662 278.177 224.536C278.177 226.43 276.724 227.74 275.125 227.74H241.849L238.798 236.334H276.579C285.152 236.334 288.204 228.613 288.204 224.972C288.204 218.273 283.554 212.738 277.014 212.738Z" fill="url(#paint8_linear_9_55)"/>
<path d="M510.659 221.487C516.061 221.487 525.512 221.339 525.512 208.733C525.512 198.056 516.511 196.425 510.659 196.425H474.654C474.654 201.467 478.704 205.471 483.805 205.471H509.61C510.959 205.471 513.811 205.619 513.811 209.031C513.811 212.44 511.11 212.44 509.459 212.44H474.654L497.007 231.275C501.508 235.132 507.36 237.208 513.21 237.208H523.111L502.108 221.487H510.659Z" fill="url(#paint9_linear_9_55)"/>
<defs>
<radialGradient id="paint0_radial_9_55" cx="0" cy="0" r="1" gradientUnits="userSpaceOnUse" gradientTransform="translate(418.468 -8.82821) scale(196.255 196.72)">
<stop stop-color="#EEEED9"/>
<stop offset="0.451194" stop-color="#91947D"/>
<stop offset="0.638294" stop-color="#A7A98F"/>
<stop offset="0.774034" stop-color="#91937B"/>
<stop offset="0.897186" stop-color="#616450"/>
</radialGradient>
<linearGradient id="paint1_linear_9_55" x1="649.113" y1="196.425" x2="649.113" y2="236.334" gradientUnits="userSpaceOnUse">
<stop stop-color="#A5A5A5"/>
<stop offset="0.492963" stop-color="white"/>
<stop offset="1" stop-color="#575757"/>
</linearGradient>
<linearGradient id="paint2_linear_9_55" x1="583.573" y1="196.425" x2="583.573" y2="236.479" gradientUnits="userSpaceOnUse">
<stop stop-color="#A5A5A5"/>
<stop offset="0.492963" stop-color="white"/>
<stop offset="1" stop-color="#575757"/>
</linearGradient>
<linearGradient id="paint3_linear_9_55" x1="542.156" y1="196.425" x2="542.156" y2="236.479" gradientUnits="userSpaceOnUse">
<stop stop-color="#A5A5A5"/>
<stop offset="0.492963" stop-color="white"/>
<stop offset="1" stop-color="#575757"/>
</linearGradient>
<linearGradient id="paint4_linear_9_55" x1="438.54" y1="196.425" x2="438.54" y2="236.479" gradientUnits="userSpaceOnUse">
<stop stop-color="#A5A5A5"/>
<stop offset="0.492963" stop-color="white"/>
<stop offset="1" stop-color="#575757"/>
</linearGradient>
<linearGradient id="paint5_linear_9_55" x1="379.104" y1="196.425" x2="379.104" y2="236.479" gradientUnits="userSpaceOnUse">
<stop stop-color="#A5A5A5"/>
<stop offset="0.492963" stop-color="white"/>
<stop offset="1" stop-color="#575757"/>
</linearGradient>
<linearGradient id="paint6_linear_9_55" x1="321.338" y1="212.155" x2="321.338" y2="236.334" gradientUnits="userSpaceOnUse">
<stop stop-color="#A5A5A5"/>
<stop offset="0.492963" stop-color="white"/>
<stop offset="1" stop-color="#575757"/>
</linearGradient>
<linearGradient id="paint7_linear_9_55" x1="321.847" y1="196.425" x2="321.847" y2="205.309" gradientUnits="userSpaceOnUse">
<stop stop-color="#A5A5A5"/>
<stop offset="0.492963" stop-color="white"/>
<stop offset="1" stop-color="#575757"/>
</linearGradient>
<linearGradient id="paint8_linear_9_55" x1="263.283" y1="196.425" x2="263.283" y2="236.334" gradientUnits="userSpaceOnUse">
<stop stop-color="#A5A5A5"/>
<stop offset="0.492963" stop-color="white"/>
<stop offset="1" stop-color="#575757"/>
</linearGradient>
<linearGradient id="paint9_linear_9_55" x1="500.082" y1="196.425" x2="500.082" y2="237.208" gradientUnits="userSpaceOnUse">
<stop stop-color="#A5A5A5"/>
<stop offset="0.492963" stop-color="white"/>
<stop offset="1" stop-color="#575757"/>
</linearGradient>
</defs>
</svg>
